<?xml version="1.0" standalone="no"?>
<!DOCTYPE svg PUBLIC "-//W3C//DTD SVG 20010904//EN"
 "http://www.w3.org/TR/2001/REC-SVG-20010904/DTD/svg10.dtd">
<svg version="1.0" xmlns="http://www.w3.org/2000/svg"
 width="456.000000pt" height="456.000000pt" viewBox="0 0 456.000000 456.000000"
 preserveAspectRatio="xMidYMid meet">
<metadata>
Created by potrace 1.14, written by Peter Selinger 2001-2017
</metadata>
<g transform="translate(0.000000,456.000000) scale(0.100000,-0.100000)"
fill="#000000" stroke="none">
<path d="M2982 4306 c-115 -31 -247 -88 -332 -145 -36 -24 -121 -101 -190
-170 -96 -97 -140 -151 -189 -231 -85 -138 -275 -479 -270 -484 2 -3 36 34 74
82 39 48 135 152 215 232 355 357 610 469 864 376 148 -53 238 -133 367 -325
111 -164 137 -222 286 -626 187 -506 194 -532 299 -1008 77 -351 124 -616 124
-697 0 -62 -2 -71 -24 -85 -21 -14 -28 -14 -58 -2 -18 8 -55 33 -81 56 -28 24
-58 41 -73 41 -13 0 -24 -2 -24 -5 0 -8 158 -195 208 -248 51 -52 59 -55 78
-29 19 24 18 432 -1 682 -42 538 -67 669 -280 1465 -90 339 -182 587 -285 771
-78 139 -273 312 -395 350 -89 28 -207 28 -313 0z"/>
<path d="M2830 3373 c-47 -36 -116 -83 -153 -105 -132 -79 -444 -201 -592
-232 -38 -8 -155 -24 -260 -36 -216 -25 -367 -24 -754 6 -283 21 -395 13 -496
-37 -123 -60 -192 -169 -203 -316 -18 -267 100 -609 313 -906 170 -238 382
-433 840 -778 186 -140 245 -179 542 -358 501 -301 924 -476 1183 -488 93 -4
109 -2 137 16 57 36 55 48 -65 292 -196 401 -220 466 -238 664 l-7 70 -21 -45
c-25 -54 -26 -151 -3 -250 9 -36 51 -146 95 -245 93 -212 102 -236 102 -285 0
-94 -56 -82 -330 69 -450 248 -859 563 -1308 1006 -208 205 -230 231 -331 380
-183 270 -216 352 -216 530 1 135 16 191 75 263 41 52 134 117 209 147 32 13
179 49 327 81 343 72 529 133 759 248 175 88 294 169 412 280 61 56 93 97 76
95 -4 -1 -46 -30 -93 -66z"/>
</g>
</svg>
